<svg xmlns="http://www.w3.org/2000/svg" viewBox="0 0 512 512">
  <defs>
    <linearGradient id="logo-gradient" x1="0%" y1="0%" x2="100%" y2="100%">
      <stop offset="0%" style="stop-color:#1DB954;stop-opacity:1" />
      <stop offset="100%" style="stop-color:#158b3e;stop-opacity:1" />
    </linearGradient>
  </defs>
  <circle cx="256" cy="256" r="250" fill="url(#logo-gradient)" />
  <path d="M256 397.6c-4.8 0-9.3-1.8-12.8-5.1-42.3-40.3-77.9-74.1-105.8-106.8-23.7-27.7-36.2-54.3-36.2-79.3 0-51 41.5-92.5 92.5-92.5 27.5 0 53.7 12.1 72.3 33.3 18.6-21.2 44.8-33.3 72.3-33.3 51 0 92.5 41.5 92.5 92.5 0 25-12.5 51.6-36.2 79.3-27.9 32.7-63.5 66.5-105.8 106.8-3.5 3.3-8 5.1-12.8 5.1z" fill="white"/>
</svg>